<?xml version="1.0" encoding="UTF-8" standalone="no"?>
<!DOCTYPE svg PUBLIC "-//W3C//DTD SVG 1.1//EN"
 "http://www.w3.org/Graphics/SVG/1.1/DTD/svg11.dtd">
<!-- Generated by graphviz version 2.47.3 (20210619.1520)
 -->
<!-- Pages: 1 -->
<svg width="534pt" height="267pt"
 viewBox="0.00 0.00 534.00 267.00" xmlns="http://www.w3.org/2000/svg" xmlns:xlink="http://www.w3.org/1999/xlink">
<g id="graph0" class="graph" transform="scale(1 1) rotate(0) translate(4 263)">
<polygon fill="white" stroke="transparent" points="-4,4 -4,-263 530,-263 530,4 -4,4"/>
<text text-anchor="middle" x="263" y="-243.8" font-family="Times New Roman,serif" font-size="14.00">Architecture</text>
<g id="clust2" class="cluster">
<title>cluster_1</title>
<polygon fill="none" stroke="black" points="17,-34 17,-109 382,-109 382,-34 17,-34"/>
<text text-anchor="middle" x="199.5" y="-93.8" font-family="Times New Roman,serif" font-size="14.00">sub graph</text>
</g>
<g id="clust3" class="cluster">
<title>cluster_3</title>
<polygon fill="none" stroke="black" points="173,-117 173,-192 243,-192 243,-117 173,-117"/>
<text text-anchor="middle" x="208" y="-176.8" font-family="Times New Roman,serif" font-size="14.00">BTSE</text>
</g>
<g id="clust1" class="cluster">
<title>cluster_0</title>
<polygon fill="none" stroke="black" points="448,-8 448,-83 518,-83 518,-8 448,-8"/>
<text text-anchor="middle" x="483" y="-67.8" font-family="Times New Roman,serif" font-size="14.00">sb1</text>
</g>
<!-- A -->
<g id="node1" class="node">
<title>A</title>
<polygon fill="none" stroke="black" points="79,-78 25,-78 25,-42 79,-42 79,-78"/>
<text text-anchor="middle" x="52" y="-56.3" font-family="Times New Roman,serif" font-size="14.00">A</text>
</g>
<!-- B -->
<g id="node2" class="node">
<title>B</title>
<polygon fill="none" stroke="black" points="510,-52 456,-52 456,-16 510,-16 510,-52"/>
<text text-anchor="middle" x="483" y="-30.3" font-family="Times New Roman,serif" font-size="14.00">B</text>
</g>
<!-- A&#45;&gt;B -->
<g id="edge1" class="edge">
<title>A&#45;&gt;B</title>
<path fill="none" stroke="black" d="M79.23,-56.62C144.02,-48.59 302,-29 302,-29 302,-29 392.89,-31.51 445.85,-32.97"/>
<polygon fill="black" stroke="black" points="445.81,-36.47 455.9,-33.25 446,-29.48 445.81,-36.47"/>
<text text-anchor="middle" x="277.5" y="-17.8" font-family="Times New Roman,serif" font-size="14.00">lien série</text>
</g>
<!-- G -->
<g id="node4" class="node">
<title>G</title>
<polygon fill="none" stroke="black" points="235,-78 181,-78 181,-42 235,-42 235,-78"/>
<text text-anchor="middle" x="208" y="-56.3" font-family="Times New Roman,serif" font-size="14.00">G</text>
</g>
<!-- A&#45;&gt;G -->
<g id="edge3" class="edge">
<title>A&#45;&gt;G</title>
<path fill="none" stroke="black" d="M79.12,-60C104.23,-60 142.41,-60 170.52,-60"/>
<polygon fill="black" stroke="black" points="170.75,-63.5 180.75,-60 170.75,-56.5 170.75,-63.5"/>
</g>
<!-- C -->
<g id="node3" class="node">
<title>C</title>
<polygon fill="none" stroke="black" points="374,-78 320,-78 320,-42 374,-42 374,-78"/>
<text text-anchor="middle" x="347" y="-56.3" font-family="Times New Roman,serif" font-size="14.00">C</text>
</g>
<!-- C&#45;&gt;B -->
<g id="edge2" class="edge">
<title>C&#45;&gt;B</title>
<path fill="none" stroke="black" d="M374.15,-54.93C394.63,-50.95 423.34,-45.38 445.98,-40.99"/>
<polygon fill="black" stroke="black" points="446.76,-44.4 455.91,-39.06 445.43,-37.53 446.76,-44.4"/>
<text text-anchor="middle" x="415" y="-54.8" font-family="Times New Roman,serif" font-size="14.00">RSEDA</text>
</g>
<!-- G&#45;&gt;C -->
<g id="edge4" class="edge">
<title>G&#45;&gt;C</title>
<path fill="none" stroke="black" d="M235.09,-60C256.1,-60 285.87,-60 309.28,-60"/>
<polygon fill="black" stroke="black" points="309.54,-63.5 319.54,-60 309.54,-56.5 309.54,-63.5"/>
</g>
<!-- autres -->
<g id="node5" class="node">
<title>autres</title>
<path fill="turquoise" stroke="black" d="M92,-161C92,-161 12,-161 12,-161 6,-161 0,-155 0,-149 0,-149 0,-137 0,-137 0,-131 6,-125 12,-125 12,-125 92,-125 92,-125 98,-125 104,-131 104,-137 104,-137 104,-149 104,-149 104,-155 98,-161 92,-161"/>
<text text-anchor="middle" x="52" y="-139.3" font-family="Times New Roman,serif" font-size="14.00">etiquette longue</text>
</g>
<!-- a -->
<g id="node6" class="node">
<title>a</title>
<polygon fill="none" stroke="black" points="235,-161 181,-161 181,-125 235,-125 235,-161"/>
<text text-anchor="middle" x="208" y="-139.3" font-family="Times New Roman,serif" font-size="14.00">a</text>
</g>
<!-- autres&#45;&gt;a -->
<g id="edge5" class="edge">
<title>autres&#45;&gt;a</title>
<path fill="none" stroke="black" d="M104.28,-143C126.09,-143 151,-143 170.83,-143"/>
<polygon fill="black" stroke="black" points="170.98,-146.5 180.98,-143 170.98,-139.5 170.98,-146.5"/>
<text text-anchor="middle" x="142.5" y="-146.8" font-family="Times New Roman,serif" font-size="14.00">115200</text>
</g>
<!-- vis -->
<g id="node7" class="node">
<title>vis</title>
<polygon fill="none" stroke="black" points="374,-161 320,-161 320,-125 374,-125 374,-161"/>
<text text-anchor="middle" x="347" y="-139.3" font-family="Times New Roman,serif" font-size="14.00">vis</text>
</g>
<!-- a&#45;&gt;vis -->
<g id="edge6" class="edge">
<title>a&#45;&gt;vis</title>
<path fill="none" stroke="black" d="M235.09,-143C256.1,-143 285.87,-143 309.28,-143"/>
<polygon fill="black" stroke="black" points="309.54,-146.5 319.54,-143 309.54,-139.5 309.54,-146.5"/>
</g>
<!-- fichier -->
<g id="node8" class="node">
<title>fichier</title>
<polygon fill="none" stroke="yellow" points="235,-236 193,-236 193,-240 181,-240 181,-200 235,-200 235,-236"/>
<polyline fill="none" stroke="yellow" points="181,-236 193,-236 "/>
<text text-anchor="middle" x="208" y="-214.3" font-family="Times New Roman,serif" font-size="14.00">fichier</text>
</g>
<!-- texte -->
<g id="node10" class="node">
<title>texte</title>
<polygon fill="none" stroke="green" points="374,-236 371,-240 350,-240 347,-236 320,-236 320,-200 374,-200 374,-236"/>
<text text-anchor="middle" x="347" y="-214.3" font-family="Times New Roman,serif" font-size="14.00">texte</text>
</g>
<!-- fichier&#45;&gt;texte -->
<g id="edge8" class="edge">
<title>fichier&#45;&gt;texte</title>
<path fill="none" stroke="black" d="M235.09,-218C256.1,-218 285.87,-218 309.28,-218"/>
<polygon fill="black" stroke="black" points="309.54,-221.5 319.54,-218 309.54,-214.5 309.54,-221.5"/>
</g>
<!-- dossier -->
<g id="node9" class="node">
<title>dossier</title>
<polygon fill="none" stroke="black" points="80.5,-236 77.5,-240 56.5,-240 53.5,-236 23.5,-236 23.5,-200 80.5,-200 80.5,-236"/>
<text text-anchor="middle" x="52" y="-214.3" font-family="Times New Roman,serif" font-size="14.00">dossier</text>
</g>
<!-- dossier&#45;&gt;fichier -->
<g id="edge7" class="edge">
<title>dossier&#45;&gt;fichier</title>
<path fill="none" stroke="black" d="M80.53,-218C105.77,-218 143.31,-218 170.93,-218"/>
<polygon fill="black" stroke="black" points="170.99,-221.5 180.99,-218 170.99,-214.5 170.99,-221.5"/>
</g>
</g>
</svg>
