<?xml version="1.0" encoding="UTF-8" standalone="no"?>
<!DOCTYPE svg PUBLIC "-//W3C//DTD SVG 1.1//EN"
 "http://www.w3.org/Graphics/SVG/1.1/DTD/svg11.dtd">
<!-- Generated by graphviz version 2.47.3 (20210619.1520)
 -->
<!-- Pages: 1 -->
<svg width="347pt" height="349pt"
 viewBox="0.00 0.00 347.00 349.00" xmlns="http://www.w3.org/2000/svg" xmlns:xlink="http://www.w3.org/1999/xlink">
<g id="graph0" class="graph" transform="scale(1 1) rotate(0) translate(4 345)">
<polygon fill="white" stroke="transparent" points="-4,4 -4,-345 343,-345 343,4 -4,4"/>
<text text-anchor="middle" x="169.5" y="-325.8" font-family="Times New Roman,serif" font-size="14.00">Architecture</text>
<g id="clust1" class="cluster">
<title>cluster_0</title>
<polygon fill="none" stroke="black" points="17,-91 17,-220 253.5,-220 253.5,-91 17,-91"/>
<text text-anchor="middle" x="135.25" y="-204.8" font-family="Times New Roman,serif" font-size="14.00">sb1</text>
</g>
<g id="clust2" class="cluster">
<title>cluster_1</title>
<polygon fill="none" stroke="black" points="182.5,-8 182.5,-83 254.5,-83 254.5,-8 182.5,-8"/>
<text text-anchor="middle" x="218.5" y="-67.8" font-family="Times New Roman,serif" font-size="14.00">sub graph</text>
</g>
<!-- A -->
<g id="node1" class="node">
<title>A</title>
<polygon fill="none" stroke="black" points="79,-189 25,-189 25,-153 79,-153 79,-189"/>
<text text-anchor="middle" x="52" y="-167.3" font-family="Times New Roman,serif" font-size="14.00">A</text>
</g>
<!-- B -->
<g id="node2" class="node">
<title>B</title>
<polygon fill="none" stroke="black" points="245.5,-158 191.5,-158 191.5,-122 245.5,-122 245.5,-158"/>
<text text-anchor="middle" x="218.5" y="-136.3" font-family="Times New Roman,serif" font-size="14.00">B</text>
</g>
<!-- A&#45;&gt;B -->
<g id="edge1" class="edge">
<title>A&#45;&gt;B</title>
<path fill="none" stroke="black" d="M79.07,-166.09C106.66,-160.89 150.41,-152.64 181.33,-146.82"/>
<polygon fill="black" stroke="black" points="182.11,-150.23 191.28,-144.94 180.81,-143.35 182.11,-150.23"/>
<text text-anchor="middle" x="146.5" y="-161.8" font-family="Times New Roman,serif" font-size="14.00">lien série</text>
</g>
<!-- G -->
<g id="node4" class="node">
<title>G</title>
<polygon fill="none" stroke="black" points="245.5,-52 191.5,-52 191.5,-16 245.5,-16 245.5,-52"/>
<text text-anchor="middle" x="218.5" y="-30.3" font-family="Times New Roman,serif" font-size="14.00">G</text>
</g>
<!-- A&#45;&gt;G -->
<g id="edge3" class="edge">
<title>A&#45;&gt;G</title>
<path fill="none" stroke="black" d="M74.84,-152.81C103.93,-128.58 155.48,-85.66 187.99,-58.57"/>
<polygon fill="black" stroke="black" points="190.38,-61.14 195.83,-52.05 185.9,-55.76 190.38,-61.14"/>
</g>
<!-- C -->
<g id="node3" class="node">
<title>C</title>
<polygon fill="none" stroke="black" points="79,-135 25,-135 25,-99 79,-99 79,-135"/>
<text text-anchor="middle" x="52" y="-113.3" font-family="Times New Roman,serif" font-size="14.00">C</text>
</g>
<!-- C&#45;&gt;B -->
<g id="edge2" class="edge">
<title>C&#45;&gt;B</title>
<path fill="none" stroke="black" d="M79.07,-120.64C106.66,-124.5 150.41,-130.62 181.33,-134.94"/>
<polygon fill="black" stroke="black" points="180.9,-138.42 191.28,-136.33 181.87,-131.48 180.9,-138.42"/>
<text text-anchor="middle" x="146.5" y="-129.8" font-family="Times New Roman,serif" font-size="14.00">RSEDA</text>
</g>
<!-- G&#45;&gt;C -->
<g id="edge4" class="edge">
<title>G&#45;&gt;C</title>
<path fill="none" stroke="black" d="M191.28,-47.23C163.39,-61.3 119.11,-83.64 88.2,-99.24"/>
<polygon fill="black" stroke="black" points="86.42,-96.22 79.07,-103.85 89.57,-102.47 86.42,-96.22"/>
</g>
<!-- autres -->
<g id="node5" class="node">
<title>autres</title>
<path fill="turquoise" stroke="black" d="M92,-264C92,-264 12,-264 12,-264 6,-264 0,-258 0,-252 0,-252 0,-240 0,-240 0,-234 6,-228 12,-228 12,-228 92,-228 92,-228 98,-228 104,-234 104,-240 104,-240 104,-252 104,-252 104,-258 98,-264 92,-264"/>
<text text-anchor="middle" x="52" y="-242.3" font-family="Times New Roman,serif" font-size="14.00">etiquette longue</text>
</g>
<!-- molette -->
<g id="node6" class="node">
<title>molette</title>
<polygon fill="coral" stroke="black" points="247,-264 190,-264 190,-228 247,-228 247,-264"/>
<text text-anchor="middle" x="218.5" y="-242.3" font-family="Times New Roman,serif" font-size="14.00">molette</text>
</g>
<!-- autres&#45;&gt;molette -->
<g id="edge5" class="edge">
<title>autres&#45;&gt;molette</title>
<path fill="none" stroke="black" d="M104.15,-246C128.57,-246 157.29,-246 179.71,-246"/>
<polygon fill="black" stroke="black" points="179.84,-249.5 189.84,-246 179.84,-242.5 179.84,-249.5"/>
</g>
<!-- vis -->
<g id="node7" class="node">
<title>vis</title>
<polygon fill="none" stroke="black" points="339,-264 285,-264 285,-228 339,-228 339,-264"/>
<text text-anchor="middle" x="312" y="-242.3" font-family="Times New Roman,serif" font-size="14.00">vis</text>
</g>
<!-- molette&#45;&gt;vis -->
<g id="edge6" class="edge">
<title>molette&#45;&gt;vis</title>
<path fill="none" stroke="black" d="M247.45,-246C255.99,-246 265.5,-246 274.52,-246"/>
<polygon fill="black" stroke="black" points="274.78,-249.5 284.78,-246 274.78,-242.5 274.78,-249.5"/>
</g>
<!-- fichier -->
<g id="node8" class="node">
<title>fichier</title>
<polygon fill="none" stroke="yellow" points="245.5,-318 203.5,-318 203.5,-322 191.5,-322 191.5,-282 245.5,-282 245.5,-318"/>
<polyline fill="none" stroke="yellow" points="191.5,-318 203.5,-318 "/>
<text text-anchor="middle" x="218.5" y="-296.3" font-family="Times New Roman,serif" font-size="14.00">fichier</text>
</g>
<!-- texte -->
<g id="node10" class="node">
<title>texte</title>
<polygon fill="none" stroke="green" points="339,-318 336,-322 315,-322 312,-318 285,-318 285,-282 339,-282 339,-318"/>
<text text-anchor="middle" x="312" y="-296.3" font-family="Times New Roman,serif" font-size="14.00">texte</text>
</g>
<!-- fichier&#45;&gt;texte -->
<g id="edge8" class="edge">
<title>fichier&#45;&gt;texte</title>
<path fill="none" stroke="black" d="M245.97,-300C254.96,-300 265.17,-300 274.79,-300"/>
<polygon fill="black" stroke="black" points="274.91,-303.5 284.91,-300 274.91,-296.5 274.91,-303.5"/>
</g>
<!-- dossier -->
<g id="node9" class="node">
<title>dossier</title>
<polygon fill="none" stroke="black" points="80.5,-318 77.5,-322 56.5,-322 53.5,-318 23.5,-318 23.5,-282 80.5,-282 80.5,-318"/>
<text text-anchor="middle" x="52" y="-296.3" font-family="Times New Roman,serif" font-size="14.00">dossier</text>
</g>
<!-- dossier&#45;&gt;fichier -->
<g id="edge7" class="edge">
<title>dossier&#45;&gt;fichier</title>
<path fill="none" stroke="black" d="M80.53,-300C108.11,-300 150.69,-300 181.05,-300"/>
<polygon fill="black" stroke="black" points="181.24,-303.5 191.24,-300 181.24,-296.5 181.24,-303.5"/>
</g>
</g>
</svg>
